solid OpenSCAD_Model
  facet normal 1 -0 0
    outer loop
      vertex 0 -2.075 1
      vertex 0 0.0749998 -1
      vertex 0 0.0749998 1
    endloop
  endfacet
  facet normal 1 0 0
    outer loop
      vertex 0 0.0749998 -1
      vertex 0 -2.075 1
      vertex 0 -2.075 -1
    endloop
  endfacet
  facet normal 0 1 -0
    outer loop
      vertex 10 -2.075 -1
      vertex 0 -2.075 1
      vertex 10 -2.075 1
    endloop
  endfacet
  facet normal 0 1 0
    outer loop
      vertex 0 -2.075 1
      vertex 10 -2.075 -1
      vertex 0 -2.075 -1
    endloop
  endfacet
  facet normal 0 -1 0
    outer loop
      vertex 0 0.0749998 -1
      vertex 10 0.0749998 1
      vertex 0 0.0749998 1
    endloop
  endfacet
  facet normal 0 -1 -0
    outer loop
      vertex 10 0.0749998 1
      vertex 0 0.0749998 -1
      vertex 10 0.0749998 -1
    endloop
  endfacet
  facet normal 1 -0 0
    outer loop
      vertex 0 14.525 1
      vertex 0 16.675 -1
      vertex 0 16.675 1
    endloop
  endfacet
  facet normal 1 0 0
    outer loop
      vertex 0 16.675 -1
      vertex 0 14.525 1
      vertex 0 14.525 -1
    endloop
  endfacet
  facet normal 0 1 -0
    outer loop
      vertex 10 14.525 -1
      vertex 0 14.525 1
      vertex 10 14.525 1
    endloop
  endfacet
  facet normal 0 1 0
    outer loop
      vertex 0 14.525 1
      vertex 10 14.525 -1
      vertex 0 14.525 -1
    endloop
  endfacet
  facet normal 0 -1 0
    outer loop
      vertex 0 16.675 -1
      vertex 10 16.675 1
      vertex 0 16.675 1
    endloop
  endfacet
  facet normal 0 -1 -0
    outer loop
      vertex 10 16.675 1
      vertex 0 16.675 -1
      vertex 10 16.675 -1
    endloop
  endfacet
  facet normal 1 -0 0
    outer loop
      vertex 0 -18.675 1
      vertex 0 -16.525 -1
      vertex 0 -16.525 1
    endloop
  endfacet
  facet normal 1 0 0
    outer loop
      vertex 0 -16.525 -1
      vertex 0 -18.675 1
      vertex 0 -18.675 -1
    endloop
  endfacet
  facet normal 0 1 -0
    outer loop
      vertex 10 -18.675 -1
      vertex 0 -18.675 1
      vertex 10 -18.675 1
    endloop
  endfacet
  facet normal 0 1 0
    outer loop
      vertex 0 -18.675 1
      vertex 10 -18.675 -1
      vertex 0 -18.675 -1
    endloop
  endfacet
  facet normal 0 -1 0
    outer loop
      vertex 0 -16.525 -1
      vertex 10 -16.525 1
      vertex 0 -16.525 1
    endloop
  endfacet
  facet normal 0 -1 -0
    outer loop
      vertex 10 -16.525 1
      vertex 0 -16.525 -1
      vertex 10 -16.525 -1
    endloop
  endfacet
  facet normal 1 -0 0
    outer loop
      vertex 0 31.125 1
      vertex 0 33.275 -1
      vertex 0 33.275 1
    endloop
  endfacet
  facet normal 1 0 0
    outer loop
      vertex 0 33.275 -1
      vertex 0 31.125 1
      vertex 0 31.125 -1
    endloop
  endfacet
  facet normal 0 1 -0
    outer loop
      vertex 10 31.125 -1
      vertex 0 31.125 1
      vertex 10 31.125 1
    endloop
  endfacet
  facet normal 0 1 0
    outer loop
      vertex 0 31.125 1
      vertex 10 31.125 -1
      vertex 0 31.125 -1
    endloop
  endfacet
  facet normal 0 -1 0
    outer loop
      vertex 0 33.275 -1
      vertex 10 33.275 1
      vertex 0 33.275 1
    endloop
  endfacet
  facet normal 0 -1 -0
    outer loop
      vertex 10 33.275 1
      vertex 0 33.275 -1
      vertex 10 33.275 -1
    endloop
  endfacet
  facet normal 1 -0 0
    outer loop
      vertex 0 -35.275 1
      vertex 0 -33.125 -1
      vertex 0 -33.125 1
    endloop
  endfacet
  facet normal 1 0 0
    outer loop
      vertex 0 -33.125 -1
      vertex 0 -35.275 1
      vertex 0 -35.275 -1
    endloop
  endfacet
  facet normal 0 1 -0
    outer loop
      vertex 10 -35.275 -1
      vertex 0 -35.275 1
      vertex 10 -35.275 1
    endloop
  endfacet
  facet normal 0 1 0
    outer loop
      vertex 0 -35.275 1
      vertex 10 -35.275 -1
      vertex 0 -35.275 -1
    endloop
  endfacet
  facet normal 0 -1 0
    outer loop
      vertex 0 -33.125 -1
      vertex 10 -33.125 1
      vertex 0 -33.125 1
    endloop
  endfacet
  facet normal 0 -1 -0
    outer loop
      vertex 10 -33.125 1
      vertex 0 -33.125 -1
      vertex 10 -33.125 -1
    endloop
  endfacet
  facet normal 1 -0 0
    outer loop
      vertex 0 47.725 1
      vertex 0 49.875 -1
      vertex 0 49.875 1
    endloop
  endfacet
  facet normal 1 0 0
    outer loop
      vertex 0 49.875 -1
      vertex 0 47.725 1
      vertex 0 47.725 -1
    endloop
  endfacet
  facet normal 0 1 -0
    outer loop
      vertex 10 47.725 -1
      vertex 0 47.725 1
      vertex 10 47.725 1
    endloop
  endfacet
  facet normal 0 1 0
    outer loop
      vertex 0 47.725 1
      vertex 10 47.725 -1
      vertex 0 47.725 -1
    endloop
  endfacet
  facet normal 0 -1 0
    outer loop
      vertex 0 49.875 -1
      vertex 10 49.875 1
      vertex 0 49.875 1
    endloop
  endfacet
  facet normal 0 -1 -0
    outer loop
      vertex 10 49.875 1
      vertex 0 49.875 -1
      vertex 10 49.875 -1
    endloop
  endfacet
  facet normal 1 -0 0
    outer loop
      vertex 0 -51.875 1
      vertex 0 -49.725 -1
      vertex 0 -49.725 1
    endloop
  endfacet
  facet normal 1 0 0
    outer loop
      vertex 0 -49.725 -1
      vertex 0 -51.875 1
      vertex 0 -51.875 -1
    endloop
  endfacet
  facet normal 0 1 -0
    outer loop
      vertex 10 -51.875 -1
      vertex 0 -51.875 1
      vertex 10 -51.875 1
    endloop
  endfacet
  facet normal 0 1 0
    outer loop
      vertex 0 -51.875 1
      vertex 10 -51.875 -1
      vertex 0 -51.875 -1
    endloop
  endfacet
  facet normal 0 -1 0
    outer loop
      vertex 0 -49.725 -1
      vertex 10 -49.725 1
      vertex 0 -49.725 1
    endloop
  endfacet
  facet normal 0 -1 -0
    outer loop
      vertex 10 -49.725 1
      vertex 0 -49.725 -1
      vertex 10 -49.725 -1
    endloop
  endfacet
  facet normal 1 -0 0
    outer loop
      vertex 0 64.325 1
      vertex 0 66.25 -1
      vertex 0 66.25 1
    endloop
  endfacet
  facet normal 1 0 0
    outer loop
      vertex 0 66.25 -1
      vertex 0 64.325 1
      vertex 0 64.325 -1
    endloop
  endfacet
  facet normal 0 1 -0
    outer loop
      vertex 10 64.325 -1
      vertex 0 64.325 1
      vertex 10 64.325 1
    endloop
  endfacet
  facet normal 0 1 0
    outer loop
      vertex 0 64.325 1
      vertex 10 64.325 -1
      vertex 0 64.325 -1
    endloop
  endfacet
  facet normal 1 -0 0
    outer loop
      vertex 0 -66.4 1
      vertex 0 -66.325 -1
      vertex 0 -66.325 1
    endloop
  endfacet
  facet normal 1 0 0
    outer loop
      vertex 0 -66.325 -1
      vertex 0 -66.4 1
      vertex 0 -66.4 -1
    endloop
  endfacet
  facet normal 0 -1 0
    outer loop
      vertex 0 -66.325 -1
      vertex 10 -66.325 1
      vertex 0 -66.325 1
    endloop
  endfacet
  facet normal 0 -1 -0
    outer loop
      vertex 10 -66.325 1
      vertex 0 -66.325 -1
      vertex 10 -66.325 -1
    endloop
  endfacet
  facet normal 1 -0 0
    outer loop
      vertex 10 -16.525 1
      vertex 10 -2.075 -1
      vertex 10 -2.075 1
    endloop
  endfacet
  facet normal 1 0 0
    outer loop
      vertex 10 -2.075 -1
      vertex 10 -16.525 1
      vertex 10 -16.525 -1
    endloop
  endfacet
  facet normal 1 -0 0
    outer loop
      vertex 10 0.0749998 1
      vertex 10 14.525 -1
      vertex 10 14.525 1
    endloop
  endfacet
  facet normal 1 0 0
    outer loop
      vertex 10 14.525 -1
      vertex 10 0.0749998 1
      vertex 10 0.0749998 -1
    endloop
  endfacet
  facet normal 1 -0 0
    outer loop
      vertex 10 16.675 1
      vertex 10 31.125 -1
      vertex 10 31.125 1
    endloop
  endfacet
  facet normal 1 0 0
    outer loop
      vertex 10 31.125 -1
      vertex 10 16.675 1
      vertex 10 16.675 -1
    endloop
  endfacet
  facet normal 1 -0 0
    outer loop
      vertex 10 -33.125 1
      vertex 10 -18.675 -1
      vertex 10 -18.675 1
    endloop
  endfacet
  facet normal 1 0 0
    outer loop
      vertex 10 -18.675 -1
      vertex 10 -33.125 1
      vertex 10 -33.125 -1
    endloop
  endfacet
  facet normal 1 -0 0
    outer loop
      vertex 10 33.275 1
      vertex 10 47.725 -1
      vertex 10 47.725 1
    endloop
  endfacet
  facet normal 1 0 0
    outer loop
      vertex 10 47.725 -1
      vertex 10 33.275 1
      vertex 10 33.275 -1
    endloop
  endfacet
  facet normal 1 -0 0
    outer loop
      vertex 10 -49.725 1
      vertex 10 -35.275 -1
      vertex 10 -35.275 1
    endloop
  endfacet
  facet normal 1 0 0
    outer loop
      vertex 10 -35.275 -1
      vertex 10 -49.725 1
      vertex 10 -49.725 -1
    endloop
  endfacet
  facet normal 1 -0 0
    outer loop
      vertex 10 49.875 1
      vertex 10 64.325 -1
      vertex 10 64.325 1
    endloop
  endfacet
  facet normal 1 0 0
    outer loop
      vertex 10 64.325 -1
      vertex 10 49.875 1
      vertex 10 49.875 -1
    endloop
  endfacet
  facet normal 1 -0 0
    outer loop
      vertex 10 -66.325 1
      vertex 10 -51.875 -1
      vertex 10 -51.875 1
    endloop
  endfacet
  facet normal 1 0 0
    outer loop
      vertex 10 -51.875 -1
      vertex 10 -66.325 1
      vertex 10 -66.325 -1
    endloop
  endfacet
  facet normal -0 0 1
    outer loop
      vertex -10 66.25 1
      vertex 0 64.325 1
      vertex 0 66.25 1
    endloop
  endfacet
  facet normal 0 0 1
    outer loop
      vertex 0 64.325 1
      vertex -10 66.25 1
      vertex 0 49.875 1
    endloop
  endfacet
  facet normal 0 0 1
    outer loop
      vertex 0 49.875 1
      vertex -10 66.25 1
      vertex 0 47.725 1
    endloop
  endfacet
  facet normal 0 0 1
    outer loop
      vertex 0 47.725 1
      vertex -10 66.25 1
      vertex 0 33.275 1
    endloop
  endfacet
  facet normal 0 0 1
    outer loop
      vertex 0 33.275 1
      vertex -10 66.25 1
      vertex 0 31.125 1
    endloop
  endfacet
  facet normal 0 0 1
    outer loop
      vertex 0 31.125 1
      vertex -10 66.25 1
      vertex 0 16.675 1
    endloop
  endfacet
  facet normal 0 0 1
    outer loop
      vertex 0 16.675 1
      vertex -10 66.25 1
      vertex 0 14.525 1
    endloop
  endfacet
  facet normal 0 0 1
    outer loop
      vertex 0 14.525 1
      vertex -10 66.25 1
      vertex 0 0.0749998 1
    endloop
  endfacet
  facet normal 0 0 1
    outer loop
      vertex 0 0.0749998 1
      vertex -10 66.25 1
      vertex 0 -2.075 1
    endloop
  endfacet
  facet normal 0 0 1
    outer loop
      vertex -10 -66.4 1
      vertex 0 -2.075 1
      vertex -10 66.25 1
    endloop
  endfacet
  facet normal 0 0 1
    outer loop
      vertex 0 -2.075 1
      vertex -10 -66.4 1
      vertex 0 -16.525 1
    endloop
  endfacet
  facet normal 0 0 1
    outer loop
      vertex 0 -16.525 1
      vertex -10 -66.4 1
      vertex 0 -18.675 1
    endloop
  endfacet
  facet normal 0 0 1
    outer loop
      vertex 0 -18.675 1
      vertex -10 -66.4 1
      vertex 0 -33.125 1
    endloop
  endfacet
  facet normal 0 0 1
    outer loop
      vertex 0 -33.125 1
      vertex -10 -66.4 1
      vertex 0 -35.275 1
    endloop
  endfacet
  facet normal 0 0 1
    outer loop
      vertex 0 -35.275 1
      vertex -10 -66.4 1
      vertex 0 -49.725 1
    endloop
  endfacet
  facet normal 0 0 1
    outer loop
      vertex 0 -49.725 1
      vertex -10 -66.4 1
      vertex 0 -51.875 1
    endloop
  endfacet
  facet normal 0 0 1
    outer loop
      vertex 0 -51.875 1
      vertex -10 -66.4 1
      vertex 0 -66.325 1
    endloop
  endfacet
  facet normal 0 0 1
    outer loop
      vertex 0 -66.325 1
      vertex -10 -66.4 1
      vertex 0 -66.4 1
    endloop
  endfacet
  facet normal -0 0 1
    outer loop
      vertex 0 64.325 1
      vertex 10 49.875 1
      vertex 10 64.325 1
    endloop
  endfacet
  facet normal 0 0 1
    outer loop
      vertex 10 49.875 1
      vertex 0 64.325 1
      vertex 0 49.875 1
    endloop
  endfacet
  facet normal -0 0 1
    outer loop
      vertex 0 47.725 1
      vertex 10 33.275 1
      vertex 10 47.725 1
    endloop
  endfacet
  facet normal 0 0 1
    outer loop
      vertex 10 33.275 1
      vertex 0 47.725 1
      vertex 0 33.275 1
    endloop
  endfacet
  facet normal -0 0 1
    outer loop
      vertex 0 31.125 1
      vertex 10 16.675 1
      vertex 10 31.125 1
    endloop
  endfacet
  facet normal 0 0 1
    outer loop
      vertex 10 16.675 1
      vertex 0 31.125 1
      vertex 0 16.675 1
    endloop
  endfacet
  facet normal -0 0 1
    outer loop
      vertex 0 14.525 1
      vertex 10 0.0749998 1
      vertex 10 14.525 1
    endloop
  endfacet
  facet normal 0 0 1
    outer loop
      vertex 10 0.0749998 1
      vertex 0 14.525 1
      vertex 0 0.0749998 1
    endloop
  endfacet
  facet normal -0 0 1
    outer loop
      vertex 0 -2.075 1
      vertex 10 -16.525 1
      vertex 10 -2.075 1
    endloop
  endfacet
  facet normal 0 0 1
    outer loop
      vertex 10 -16.525 1
      vertex 0 -2.075 1
      vertex 0 -16.525 1
    endloop
  endfacet
  facet normal -0 0 1
    outer loop
      vertex 0 -18.675 1
      vertex 10 -33.125 1
      vertex 10 -18.675 1
    endloop
  endfacet
  facet normal 0 0 1
    outer loop
      vertex 10 -33.125 1
      vertex 0 -18.675 1
      vertex 0 -33.125 1
    endloop
  endfacet
  facet normal -0 0 1
    outer loop
      vertex 0 -35.275 1
      vertex 10 -49.725 1
      vertex 10 -35.275 1
    endloop
  endfacet
  facet normal 0 0 1
    outer loop
      vertex 10 -49.725 1
      vertex 0 -35.275 1
      vertex 0 -49.725 1
    endloop
  endfacet
  facet normal -0 0 1
    outer loop
      vertex 0 -51.875 1
      vertex 10 -66.325 1
      vertex 10 -51.875 1
    endloop
  endfacet
  facet normal 0 0 1
    outer loop
      vertex 10 -66.325 1
      vertex 0 -51.875 1
      vertex 0 -66.325 1
    endloop
  endfacet
  facet normal 0 0 -1
    outer loop
      vertex -10 -66.4 -1
      vertex 0 -66.325 -1
      vertex 0 -66.4 -1
    endloop
  endfacet
  facet normal -0 0 -1
    outer loop
      vertex 0 -66.325 -1
      vertex -10 -66.4 -1
      vertex 0 -51.875 -1
    endloop
  endfacet
  facet normal -0 0 -1
    outer loop
      vertex 0 -51.875 -1
      vertex -10 -66.4 -1
      vertex 0 -49.725 -1
    endloop
  endfacet
  facet normal -0 0 -1
    outer loop
      vertex 0 -49.725 -1
      vertex -10 -66.4 -1
      vertex 0 -35.275 -1
    endloop
  endfacet
  facet normal -0 0 -1
    outer loop
      vertex 0 -35.275 -1
      vertex -10 -66.4 -1
      vertex 0 -33.125 -1
    endloop
  endfacet
  facet normal -0 0 -1
    outer loop
      vertex 0 -33.125 -1
      vertex -10 -66.4 -1
      vertex 0 -18.675 -1
    endloop
  endfacet
  facet normal -0 0 -1
    outer loop
      vertex 0 -18.675 -1
      vertex -10 -66.4 -1
      vertex 0 -16.525 -1
    endloop
  endfacet
  facet normal -0 0 -1
    outer loop
      vertex 0 -16.525 -1
      vertex -10 -66.4 -1
      vertex 0 -2.075 -1
    endloop
  endfacet
  facet normal -0 0 -1
    outer loop
      vertex 0 -2.075 -1
      vertex -10 -66.4 -1
      vertex 0 0.0749998 -1
    endloop
  endfacet
  facet normal 0 0 -1
    outer loop
      vertex -10 66.25 -1
      vertex 0 0.0749998 -1
      vertex -10 -66.4 -1
    endloop
  endfacet
  facet normal 0 0 -1
    outer loop
      vertex 0 0.0749998 -1
      vertex -10 66.25 -1
      vertex 0 14.525 -1
    endloop
  endfacet
  facet normal 0 0 -1
    outer loop
      vertex 0 14.525 -1
      vertex -10 66.25 -1
      vertex 0 16.675 -1
    endloop
  endfacet
  facet normal 0 0 -1
    outer loop
      vertex 0 16.675 -1
      vertex -10 66.25 -1
      vertex 0 31.125 -1
    endloop
  endfacet
  facet normal 0 0 -1
    outer loop
      vertex 0 31.125 -1
      vertex -10 66.25 -1
      vertex 0 33.275 -1
    endloop
  endfacet
  facet normal 0 0 -1
    outer loop
      vertex 0 33.275 -1
      vertex -10 66.25 -1
      vertex 0 47.725 -1
    endloop
  endfacet
  facet normal 0 0 -1
    outer loop
      vertex 0 47.725 -1
      vertex -10 66.25 -1
      vertex 0 49.875 -1
    endloop
  endfacet
  facet normal 0 0 -1
    outer loop
      vertex 0 49.875 -1
      vertex -10 66.25 -1
      vertex 0 64.325 -1
    endloop
  endfacet
  facet normal 0 0 -1
    outer loop
      vertex 0 64.325 -1
      vertex -10 66.25 -1
      vertex 0 66.25 -1
    endloop
  endfacet
  facet normal 0 0 -1
    outer loop
      vertex 0 -66.325 -1
      vertex 10 -51.875 -1
      vertex 10 -66.325 -1
    endloop
  endfacet
  facet normal -0 0 -1
    outer loop
      vertex 10 -51.875 -1
      vertex 0 -66.325 -1
      vertex 0 -51.875 -1
    endloop
  endfacet
  facet normal 0 0 -1
    outer loop
      vertex 0 -49.725 -1
      vertex 10 -35.275 -1
      vertex 10 -49.725 -1
    endloop
  endfacet
  facet normal -0 0 -1
    outer loop
      vertex 10 -35.275 -1
      vertex 0 -49.725 -1
      vertex 0 -35.275 -1
    endloop
  endfacet
  facet normal 0 0 -1
    outer loop
      vertex 0 -33.125 -1
      vertex 10 -18.675 -1
      vertex 10 -33.125 -1
    endloop
  endfacet
  facet normal -0 0 -1
    outer loop
      vertex 10 -18.675 -1
      vertex 0 -33.125 -1
      vertex 0 -18.675 -1
    endloop
  endfacet
  facet normal 0 0 -1
    outer loop
      vertex 0 -16.525 -1
      vertex 10 -2.075 -1
      vertex 10 -16.525 -1
    endloop
  endfacet
  facet normal -0 0 -1
    outer loop
      vertex 10 -2.075 -1
      vertex 0 -16.525 -1
      vertex 0 -2.075 -1
    endloop
  endfacet
  facet normal 0 0 -1
    outer loop
      vertex 0 0.0749998 -1
      vertex 10 14.525 -1
      vertex 10 0.0749998 -1
    endloop
  endfacet
  facet normal -0 0 -1
    outer loop
      vertex 10 14.525 -1
      vertex 0 0.0749998 -1
      vertex 0 14.525 -1
    endloop
  endfacet
  facet normal 0 0 -1
    outer loop
      vertex 0 16.675 -1
      vertex 10 31.125 -1
      vertex 10 16.675 -1
    endloop
  endfacet
  facet normal -0 0 -1
    outer loop
      vertex 10 31.125 -1
      vertex 0 16.675 -1
      vertex 0 31.125 -1
    endloop
  endfacet
  facet normal 0 0 -1
    outer loop
      vertex 0 33.275 -1
      vertex 10 47.725 -1
      vertex 10 33.275 -1
    endloop
  endfacet
  facet normal -0 0 -1
    outer loop
      vertex 10 47.725 -1
      vertex 0 33.275 -1
      vertex 0 47.725 -1
    endloop
  endfacet
  facet normal 0 0 -1
    outer loop
      vertex 0 49.875 -1
      vertex 10 64.325 -1
      vertex 10 49.875 -1
    endloop
  endfacet
  facet normal -0 0 -1
    outer loop
      vertex 10 64.325 -1
      vertex 0 49.875 -1
      vertex 0 64.325 -1
    endloop
  endfacet
  facet normal -1 0 0
    outer loop
      vertex -10 -66.4 -1
      vertex -10 66.25 1
      vertex -10 66.25 -1
    endloop
  endfacet
  facet normal -1 -0 0
    outer loop
      vertex -10 66.25 1
      vertex -10 -66.4 -1
      vertex -10 -66.4 1
    endloop
  endfacet
  facet normal 0 1 -0
    outer loop
      vertex 0 66.25 -1
      vertex -10 66.25 1
      vertex 0 66.25 1
    endloop
  endfacet
  facet normal 0 1 0
    outer loop
      vertex -10 66.25 1
      vertex 0 66.25 -1
      vertex -10 66.25 -1
    endloop
  endfacet
  facet normal 0 -1 0
    outer loop
      vertex -10 -66.4 -1
      vertex 0 -66.4 1
      vertex -10 -66.4 1
    endloop
  endfacet
  facet normal 0 -1 -0
    outer loop
      vertex 0 -66.4 1
      vertex -10 -66.4 -1
      vertex 0 -66.4 -1
    endloop
  endfacet
endsolid OpenSCAD_Model
